<svg width="66" height="24" viewBox="0 0 66 24" fill="none" xmlns="http://www.w3.org/2000/svg">
<rect y="14" width="66" height="10" fill="url(#paint0_linear_201_4)"/>
<path d="M10.4148 18L9.48676 15.328H4.92676L3.98276 18H2.33476L6.39876 6.8H8.06276L12.1268 18H10.4148ZM9.03876 13.968L7.19876 8.736L5.34276 13.968H9.03876ZM15.205 15.808C15.205 16.512 15.413 16.72 16.053 16.72H16.293V18.08H15.989C14.309 18.08 13.621 17.616 13.621 15.856V6.32H15.205V15.808ZM18.86 8.688C18.252 8.688 17.82 8.288 17.82 7.744C17.82 7.184 18.252 6.8 18.86 6.8C19.484 6.8 19.9 7.184 19.9 7.744C19.9 8.288 19.484 8.688 18.86 8.688ZM18.076 18V10.128H19.644V18H18.076ZM26.5534 18V16.96C26.1534 17.76 25.4494 18.16 24.2334 18.16C22.6174 18.16 21.6894 17.344 21.6894 16.016V15.568C21.6894 14.384 22.4734 13.536 24.5534 13.536H26.5534V12.992C26.5534 11.808 26.1374 11.328 25.0174 11.328C24.0094 11.328 23.5774 11.792 23.4814 12.496H21.9454C22.1374 10.976 23.0814 9.968 25.1454 9.968C27.0974 9.968 28.1214 10.864 28.1214 12.832V18H26.5534ZM24.7294 17.024C25.8974 17.024 26.5534 16.48 26.5534 15.12V14.496H24.7294C23.6414 14.496 23.2734 14.896 23.2734 15.568V15.872C23.2734 16.624 23.7214 17.024 24.7294 17.024ZM33.0914 11.168C32.0834 11.168 31.6994 11.52 31.6994 12.208C31.6994 12.88 32.0354 13.104 32.9154 13.312L33.9394 13.52C35.7954 13.92 36.4514 14.432 36.4514 15.792C36.4514 17.344 35.3954 18.16 33.2834 18.16C31.2354 18.16 30.1154 17.328 29.9074 15.488H31.3954C31.5234 16.512 32.0834 16.96 33.3154 16.96C34.4514 16.96 34.8834 16.576 34.8834 15.856C34.8834 15.152 34.5954 14.96 33.5234 14.736L32.3874 14.512C30.8834 14.208 30.1314 13.632 30.1314 12.272C30.1314 10.88 31.0754 9.968 33.0754 9.968C35.2354 9.968 36.1954 10.864 36.2754 12.512H34.7554C34.6594 11.6 34.1794 11.168 33.0914 11.168ZM41.5881 21.36C39.5401 21.36 38.3561 20.432 38.1641 18.896H39.7001C39.8441 19.616 40.4041 20 41.5241 20C42.8361 20 43.4281 19.376 43.4281 17.808V16.624C42.9961 17.536 42.1641 18 41.0761 18C39.3161 18 38.0361 16.8 38.0361 14.48V13.488C38.0361 11.168 39.3161 9.968 41.0761 9.968C42.2121 9.968 43.0121 10.464 43.4281 11.328V10.128H44.9961V17.792C44.9961 20.192 43.7801 21.36 41.5881 21.36ZM41.4921 11.328C40.2281 11.328 39.6361 12.192 39.6361 13.52V14.416C39.6361 15.776 40.2281 16.64 41.5241 16.64C42.7081 16.64 43.4281 15.888 43.4281 14.384V13.488C43.4281 12.16 42.6761 11.328 41.4921 11.328ZM53.8811 15.632C53.6731 17.248 52.4411 18.16 50.6011 18.16C48.5371 18.16 47.1611 16.96 47.1611 14.64V13.472C47.1611 11.168 48.5211 9.968 50.6171 9.968C52.6331 9.968 53.9291 11.2 53.9291 13.536V14.352H48.7771C48.7931 14.592 48.8091 14.816 48.8251 15.024C48.9211 16.16 49.5131 16.848 50.6811 16.848C50.7771 16.848 50.8571 16.832 50.9531 16.816C51.7851 16.752 52.2331 16.304 52.3451 15.632H53.8811ZM48.7771 13.28L48.9211 13.36H52.4251C52.3611 11.92 51.8331 11.264 50.6331 11.264C49.4011 11.264 48.8251 12.048 48.7771 13.28ZM57.6284 13.76V18H56.0604V10.128H57.6284V11.488C58.1404 10.464 58.9564 9.968 59.9804 9.968H60.3644V11.504H59.9164C58.5724 11.504 57.6284 12.24 57.6284 13.76Z" fill="white"/>
<defs>
<linearGradient id="paint0_linear_201_4" x1="-4.30271e-07" y1="19" x2="66" y2="19" gradientUnits="userSpaceOnUse">
<stop stop-color="#642C69"/>
<stop offset="1" stop-color="#38246E"/>
</linearGradient>
</defs>
</svg>
