<?xml version="1.0" encoding="utf-8"?>
<!-- Generator: Adobe Illustrator 16.0.0, SVG Export Plug-In . SVG Version: 6.00 Build 0)  -->
<!DOCTYPE svg PUBLIC "-//W3C//DTD SVG 1.1//EN" "http://www.w3.org/Graphics/SVG/1.1/DTD/svg11.dtd">
<svg version="1.1" id="Layer_1" xmlns="http://www.w3.org/2000/svg" xmlns:xlink="http://www.w3.org/1999/xlink" x="0px" y="0px"
	 width="1200px" height="1200px" viewBox="0 0 1200 1200" enable-background="new 0 0 1200 1200" xml:space="preserve">
<g>
	<path fill-rule="evenodd" clip-rule="evenodd" fill="none" d="M635,0c188.246,0,376.492,0,565,0c0,171,0,342,0,513
		c-0.361-0.861-0.892-1.692-1.058-2.59c-2.604-14.021-4.718-28.148-7.835-42.052c-4.42-19.717-9.972-39.136-19.03-57.35
		c-0.36-0.993-0.722-1.986-1.082-2.979l-0.017-0.036c-0.32-0.676-0.64-1.351-0.96-2.026c-3.637-7-7.274-13.999-10.912-20.999
		c-10.796-20.077-25.271-37.16-43.05-51.283c-25.159-19.986-53.583-31.065-86.173-30.727c-30.661,0.318-61.328,0.07-91.992,0.071
		c-1.909,0-3.818,0-5.993,0c0,2.862,0,4.854,0,6.845c-0.005,43.663-0.151,87.326,0.047,130.989
		c0.1,21.982-2.667,43.505-9.041,64.509c-11.317,37.3-31.51,68.17-65.552,88.666c-25.462,15.331-53.567,22.439-82.872,22.626
		c-96.488,0.612-192.982,0.387-289.474,0.307c-17.385-0.015-34.563,1.194-51.536,5.043c-27.703,6.281-53.253,17.133-74.759,36.087
		c-31.76,27.99-45.987,64.45-46.419,105.67c-0.941,89.816-0.393,179.648-0.455,269.475c-0.001,1.666-0.126,3.338-0.029,4.997
		c0.562,9.578,0.208,19.334,1.96,28.693c4.059,21.675,14.785,40.18,29.835,56.143c20.765,22.024,46.089,36.938,74.406,47.071
		l0.241,0.168l0.287-0.059c3.766,1.324,7.531,2.648,11.297,3.973l0.021-0.073c0.719,0.314,1.438,0.629,2.158,0.943l0.27,0.153
		l0.297-0.091c0.788,0.304,1.577,0.607,2.366,0.911l0.008,0.002c0.664,0.23,1.329,0.46,1.993,0.69
		c0.341,0.087,0.682,0.174,1.022,0.261c1.005,0.303,2.009,0.606,3.014,0.91l0.353,0.188l0.399-0.016
		c1.06,0.395,2.118,0.79,3.177,1.186c11.77,2.833,23.462,6.055,35.324,8.422c29.58,5.903,59.561,9.072,89.652,9.883
		c27.771,0.748,55.601,0.143,83.386-0.593c29.964-0.793,59.695-4.303,89.121-10.113c34.314-6.776,67.559-16.623,97.478-35.432
		c20.708-13.019,37.822-29.49,47.528-52.467c4.43-10.486,7.234-21.402,5.708-32.991c0.064-0.662,0.187-1.324,0.185-1.985
		c-0.079-43.981-0.164-87.962-0.277-131.943c-0.003-1.25-0.304-2.499-0.527-4.221c-97.232,0-194.094,0-291.045,0
		c0-13.775,0-27.021,0-40.825c2.405,0,4.527,0,6.649,0c130.611,0.01,261.222,0.014,391.833,0.057
		c4.818,0.001,9.648,0.7,14.453,0.527c6.603-0.238,13.186-1,19.777-1.537c1.826-0.104,3.679-0.047,5.476-0.335
		c43.055-6.895,78.055-27.697,105.23-61.603c27.238-33.982,41.341-73.749,50.014-115.793c1.873-9.082,3.424-18.23,5.123-27.348
		c0,173,0,346,0,519c-400,0-800,0-1200,0c0-188.667,0-377.333,0-566c0.621,5.653,1.198,11.312,1.872,16.958
		c1.955,16.371,3.948,32.737,5.926,49.105c0.207,1.336,0.415,2.671,0.622,4.007c0.835,4.318,1.67,8.637,2.505,12.955
		c0.227,1.375,0.454,2.75,0.681,4.125c-0.058,0.127-0.197,0.298-0.157,0.373c0.125,0.232,0.319,0.428,0.486,0.638
		c-0.124,0.322-0.066,0.607,0.171,0.857c0.245,0.846,0.491,1.69,0.736,2.535c0.194,1.638,0.14,3.353,0.619,4.902
		c5.159,16.672,9.532,33.654,15.805,49.9c12.659,32.782,31.164,61.847,59.025,84.03c25.422,20.241,54.107,31.381,87.093,30.9
		c30.478-0.443,60.966-0.092,91.449-0.091c1.904,0.001,3.809,0,5.999,0c0-2.497,0-4.143,0-5.788
		c-0.003-45.309,0.065-90.617-0.038-135.926c-0.054-23.368,3.662-46.098,11.323-68.121c16.66-47.891,47.945-81.289,97.274-95.892
		c12.204-3.613,25.047-5.072,37.596-7.521c0.68-0.039,1.358-0.077,2.038-0.116c8.655-0.192,17.311-0.55,25.967-0.554
		c93.332-0.036,186.663-0.012,279.995-0.03c3.322-0.001,6.646-0.268,9.968-0.41c1.372-0.042,2.744-0.084,4.116-0.127
		c1.398-0.201,2.797-0.402,4.195-0.604c16.748-0.889,32.899-4.793,48.623-10.314c70.522-24.763,98.538-79.804,98.848-142.834
		c0.167-0.315,0.151-0.622-0.046-0.92c0.06-1.99,0.17-3.981,0.17-5.973c0.008-48.034,0.008-96.069-0.007-144.104
		c-0.001-2.653-0.137-5.308-0.209-7.961c0.051-36.682,0.102-73.364,0.152-110.047c0.007-3.969,0.015-7.937,0.021-11.905
		c-0.054-1.017-0.106-2.032-0.16-3.048c-0.164-1.022-0.328-2.044-0.492-3.066c-0.175-1.338-0.351-2.676-0.525-4.014
		c-0.857-3.698-1.715-7.397-2.572-11.096c-0.374-1.279-0.748-2.56-1.121-3.839c-0.272-0.786-0.544-1.572-0.816-2.359
		c0.126-0.267,0.062-0.476-0.193-0.625c-3.586-12.337-9.938-23.271-17.867-33.186c-32.351-40.451-77.316-58.385-125.794-69.921
		c-0.39-0.128-0.78-0.257-1.171-0.385c-0.995-0.188-1.99-0.375-2.985-0.563c-1.024-0.252-2.05-0.503-3.074-0.755
		c-0.34-0.071-0.68-0.143-1.019-0.214l-0.34-0.319l-0.395,0.179c-0.781-0.189-1.563-0.379-2.343-0.568
		c-0.983-0.196-1.967-0.393-2.95-0.589c-1.646-0.289-3.292-0.579-4.938-0.868c-4.321-0.803-8.643-1.605-12.964-2.408
		c-1.345-0.184-2.69-0.366-4.036-0.55c-15.484-1.882-30.957-3.862-46.457-5.605C652.095,1.293,643.537,0.736,635,0z"/>
	<path fill-rule="evenodd" clip-rule="evenodd" fill="#FECD3D" d="M1200,681c-1.699,9.117-3.25,18.266-5.123,27.348
		c-8.673,42.044-22.775,81.811-50.014,115.793c-27.176,33.905-62.176,54.708-105.23,61.603c-1.797,0.288-3.649,0.231-5.477,0.334
		c-1.5-0.027-2.999-0.078-4.498-0.078c-78.97-0.005-157.94-0.005-236.91-0.007c-37.652,0-75.305,0.003-112.957-0.014
		c-1.758-0.001-3.515-0.185-6.414-0.346c3.1-1.974,5.209-2.81,6.628-4.302c8.465-8.905,16.744-17.986,25.139-26.958
		c6.132-6.552,12.331-13.042,18.527-19.533c14.464-15.15,28.918-30.311,43.423-45.421c17.274-17.995,34.622-35.918,51.891-53.918
		c13.924-14.515,27.772-29.102,41.664-43.646c14.468-15.147,28.92-30.309,43.429-45.417c17.508-18.231,35.094-36.389,52.595-54.627
		c13.811-14.392,27.544-28.858,41.311-43.292c13.768-14.435,27.461-28.939,41.322-43.283c14.687-15.196,29.614-30.161,44.277-45.381
		c8.061-8.366,15.638-17.199,23.705-25.559c15.604-16.164,31.367-32.174,47.193-48.12c0.967-0.974,3.059-0.83,4.626-1.207
		c3.638,7,7.275,13.999,10.912,20.999c0.32,0.676,0.64,1.351,0.96,2.026c0,0,0.017,0.036,0.017,0.035
		c0.36,0.993,0.722,1.986,1.082,2.979c9.059,18.214,14.61,37.633,19.03,57.35c3.117,13.903,5.23,28.031,7.835,42.052
		c0.166,0.897,0.696,1.729,1.058,2.59C1200,569,1200,625,1200,681z"/>
	<path fill-rule="evenodd" clip-rule="evenodd" fill="none" d="M0,563C0,375.417,0,187.834,0,0c185.333,0,370.667,0,556,0
		c-1.027,0.354-2.034,0.937-3.085,1.029c-19.391,1.704-38.848,2.841-58.169,5.124c-31.659,3.74-62.706,10.465-92.521,22.052
		c-26.221,10.189-50.406,23.644-69.012,45.377c-13.363,15.611-22.086,33.394-22.133,54.361
		c-0.103,45.491,0.148,90.984,0.254,136.477c0.004,1.767,0,3.534,0,5.615c2.553,0,4.373,0,6.192,0
		c36.83,0.002,73.659,0.019,110.488-0.005c12.994-0.008,25.988-0.115,38.982-0.177c1.995,0.058,3.99,0.166,5.985,0.167
		c41.308,0.011,82.616,0.01,123.924,0.011c1.957,0,3.914,0,6.099,0c0,13.896,0,27.275,0,41.158c-2.247,0-4.203,0-6.16,0
		c-65.46,0.004-130.92,0.004-196.38,0.024c-2.825,0.001-5.649,0.198-8.474,0.304c-1.986-0.111-3.972-0.32-5.958-0.32
		c-56.479-0.016-112.957-0.007-169.436-0.01c-7.33,0-14.671,0.208-21.988-0.104c-30.955-1.318-59.809,5.979-86.582,21.313
		c-34.009,19.478-57.547,48.467-74.232,83.396C13.91,457.421,5.524,501.875,1.863,547.464C1.446,552.659,0.631,557.822,0,563z"/>
	<path fill-rule="evenodd" clip-rule="evenodd" fill="#3878AD" d="M0,563c0.631-5.178,1.446-10.341,1.863-15.536
		c3.661-45.589,12.046-90.043,31.932-131.671c16.685-34.93,40.224-63.919,74.232-83.396c26.773-15.333,55.626-22.631,86.582-21.313
		c7.317,0.312,14.658,0.104,21.988,0.104c56.479,0.003,112.957-0.006,169.436,0.01c1.986,0,3.972,0.209,5.958,0.323
		c1.485,0.828,2.943,2.302,4.462,2.366c6.316,0.269,12.65,0.113,18.979,0.113c0.032,0.586,0.064,1.171,0.097,1.757
		c-2.159,0.414-4.308,1.108-6.479,1.187c-4.99,0.178-10.028-0.307-14.974,0.201c-2.691,0.276-5.883,1.373-7.745,3.215
		c-53.027,52.457-106,104.971-158.803,157.654C154.486,550.89,81.589,623.911,8.462,697.038c0.411,0.444,1.248,1.349,2.477,2.679
		c-1.527,0.169-2.334,0.258-3.141,0.347c-1.978-16.368-3.971-32.734-5.926-49.105C1.198,645.312,0.621,639.653,0,634
		C0,610.333,0,586.667,0,563z"/>
	<path fill-rule="evenodd" clip-rule="evenodd" fill="#3878AD" d="M466.997,269.854c-12.994,0.062-25.988,0.169-38.982,0.177
		c-36.829,0.023-73.658,0.007-110.488,0.005c-1.819,0-3.64,0-6.192,0c0-2.081,0.004-3.849,0-5.615
		c-0.105-45.492-0.356-90.985-0.254-136.477c0.047-20.968,8.77-38.75,22.133-54.361c18.605-21.733,42.791-35.188,69.012-45.377
		c29.815-11.587,60.862-18.312,92.521-22.052c19.321-2.283,38.778-3.42,58.169-5.124C553.966,0.937,554.973,0.354,556,0
		c26.333,0,52.667,0,79,0c8.537,0.736,17.095,1.293,25.606,2.25c15.5,1.743,30.973,3.724,46.457,5.605
		c-4.134,0.386-8.269,0.771-12.644,1.178c-1.096,1.35-2.644,3.64-4.562,5.559c-81.862,81.92-163.758,163.807-245.643,245.704
		c-1.449,1.449-2.81,2.986-5.048,5.375c2.962,0.158,4.557,0.309,6.152,0.317c5.499,0.031,10.998-0.038,16.496,0.036
		C464.375,266.06,467.02,266.216,466.997,269.854z M436.611,197.255c29.127,0.156,52.597-22.862,52.997-51.974
		c0.388-28.235-23.21-52.522-51.152-52.874c-33.96-0.428-54.854,27.987-53.909,54.528
		C385.508,173.93,408.46,197.104,436.611,197.255z"/>
	<path fill-rule="evenodd" clip-rule="evenodd" fill="#FED647" d="M1159.106,384.969c-1.567,0.377-3.659,0.233-4.626,1.207
		c-15.826,15.946-31.59,31.956-47.193,48.12c-8.067,8.359-15.645,17.192-23.705,25.559c-14.663,15.22-29.591,30.185-44.277,45.381
		c-13.861,14.344-27.555,28.849-41.322,43.283c-13.767,14.434-27.5,28.9-41.311,43.292c-17.501,18.238-35.087,36.396-52.595,54.627
		c-14.509,15.108-28.961,30.27-43.429,45.417c-13.892,14.545-27.74,29.132-41.664,43.646c-17.269,18-34.616,35.923-51.891,53.918
		c-14.505,15.11-28.959,30.271-43.423,45.421c-6.196,6.491-12.396,12.981-18.527,19.533c-8.395,8.972-16.674,18.053-25.139,26.958
		c-1.419,1.492-3.528,2.328-6.628,4.302c2.899,0.161,4.656,0.345,6.414,0.346c37.652,0.017,75.305,0.014,112.957,0.014
		c78.97,0.002,157.94,0.002,236.91,0.007c1.499,0,2.998,0.051,4.498,0.078c-6.591,0.538-13.174,1.3-19.776,1.538
		c-4.805,0.173-9.635-0.526-14.453-0.527c-130.611-0.043-261.222-0.047-391.833-0.057c-2.122,0-4.244,0-6.649,0
		c0,13.805,0,27.05,0,40.825c96.951,0,193.813,0,291.045,0c0.224,1.722,0.524,2.971,0.527,4.221
		c0.113,43.981,0.198,87.962,0.277,131.943c0.002,0.661-0.12,1.323-0.185,1.985c-0.368-1.873-1.053-3.745-1.057-5.619
		c-0.07-27.983-0.051-55.967-0.053-83.949c-0.001-14.325-0.103-28.651,0.066-42.974c0.041-3.526-1.104-4.848-4.571-4.48
		c-4.11,0.436-8.241,0.969-12.363,0.972c-78.453,0.059-156.906,0.073-235.359-0.036c-3.842-0.005-6.538,1.115-9.139,3.861
		c-15.088,15.93-30.323,31.719-45.486,47.576c-13.897,14.533-27.767,29.095-41.648,43.644s-27.729,29.131-41.654,43.637
		c-17.732,18.471-35.51,36.897-53.304,55.309c-11.559,11.961-23.193,23.847-34.751,35.808c-1.159,1.201-2.015,2.696-2.22,2.977
		c2.613,3.012,4.526,5.216,6.439,7.421c-28.317-10.134-53.642-25.047-74.406-47.071c-15.05-15.963-25.776-34.468-29.835-56.143
		c-1.752-9.359-1.398-19.115-1.96-28.693c-0.097-1.659,0.028-3.331,0.029-4.997c0.063-89.826-0.486-179.658,0.455-269.475
		c0.432-41.22,14.659-77.68,46.419-105.67c21.506-18.954,47.056-29.806,74.759-36.087c16.973-3.849,34.151-5.058,51.536-5.043
		c96.491,0.08,192.985,0.306,289.474-0.307c29.305-0.187,57.41-7.295,82.872-22.626c34.042-20.496,54.234-51.366,65.552-88.666
		c6.374-21.004,9.141-42.526,9.041-64.509c-0.198-43.663-0.052-87.326-0.047-130.989c0-1.991,0-3.982,0-6.845
		c2.175,0,4.084,0,5.993,0c30.664-0.001,61.331,0.247,91.992-0.071c32.59-0.339,61.014,10.74,86.173,30.727
		C1133.835,347.809,1148.311,364.892,1159.106,384.969z"/>
	<path fill-rule="evenodd" clip-rule="evenodd" fill="#3772A4" d="M466.997,269.854c0.022-3.638-2.622-3.794-5.181-3.829
		c-5.498-0.074-10.997-0.005-16.496-0.036c-1.596-0.009-3.19-0.159-6.152-0.317c2.238-2.389,3.599-3.926,5.048-5.375
		c81.885-81.897,163.78-163.784,245.643-245.704c1.918-1.919,3.466-4.209,4.562-5.559c4.375-0.407,8.51-0.792,12.644-1.178
		c1.346,0.184,2.691,0.366,4.036,0.55c4.043,2.304,8.155,4.226,12.964,2.408c1.646,0.289,3.292,0.579,4.938,0.867
		c0.982,0.196,1.966,0.393,2.95,0.59c0.78,0.189,1.562,0.379,2.342,0.567c0.234,0.098,0.48,0.146,0.735,0.142
		c0.339,0.071,0.679,0.143,1.019,0.214c1.024,0.251,2.05,0.503,3.074,0.755c0.995,0.188,1.99,0.375,2.985,0.563
		c0.39,0.128,0.78,0.257,1.171,0.385c48.478,11.536,93.443,29.47,125.794,69.921c7.929,9.915,14.281,20.849,17.867,33.186
		c-5.272-0.857-8.188,2.733-11.389,5.926C755.141,244.03,634.708,364.109,514.299,484.212
		c-29.37,29.295-58.688,58.641-87.949,88.045c-1.513,1.52-2.251,3.812-3.35,5.743c-2.227,0.353-4.454,0.705-7.904,1.251
		c2.146,1.487,3.019,2.092,3.892,2.697c-12.549,2.449-25.392,3.908-37.596,7.521c-49.329,14.603-80.614,48.001-97.274,95.892
		c-7.661,22.023-11.377,44.753-11.323,68.121c0.104,45.309,0.035,90.617,0.038,135.926c0,1.646,0,3.291,0,5.788
		c-2.19,0-4.095,0.001-5.999,0c-30.483-0.001-60.972-0.353-91.449,0.091c-32.986,0.48-61.671-10.659-87.093-30.9
		c-27.861-22.184-46.366-51.248-59.025-84.03c-6.273-16.246-10.646-33.229-15.805-49.9c-0.479-1.55-0.425-3.265-0.619-4.904
		c-0.246-0.846-0.491-1.689-0.736-2.533c-0.238-0.25-0.295-0.535-0.171-0.857c-0.109-0.337-0.219-0.674-0.329-1.011
		c-0.227-1.375-0.454-2.75-0.681-4.125c0.876-1.577,2.034-3.07,2.531-4.759c0.345-1.173,0.209-2.928-0.475-3.865
		c-1.215-1.667-3.009-2.91-4.561-4.331c-0.207-1.336-0.415-2.671-0.622-4.007c0.807-0.089,1.614-0.178,3.141-0.347
		c-1.229-1.33-2.066-2.234-2.477-2.679c73.127-73.127,146.024-146.148,219.066-219.024
		c52.803-52.684,105.775-105.197,158.803-157.654c1.862-1.842,5.054-2.938,7.745-3.215c4.945-0.508,9.983-0.023,14.974-0.201
		c2.171-0.078,4.319-0.772,6.479-1.187c-0.032-0.586-0.064-1.171-0.097-1.757c-6.328,0-12.662,0.155-18.979-0.113
		c-1.519-0.064-2.977-1.538-4.462-2.366c2.824-0.108,5.648-0.306,8.474-0.307c65.46-0.021,130.92-0.021,196.38-0.024
		c1.957,0,3.913,0,6.16,0c0-13.883,0-27.263,0-41.158c-2.185,0-4.142,0-6.099,0c-41.308-0.001-82.616,0-123.924-0.011
		C470.987,270.02,468.992,269.911,466.997,269.854z"/>
	<path fill-rule="evenodd" clip-rule="evenodd" fill="#FECD3D" d="M418.01,1170.15c-1.913-2.205-3.826-4.409-6.439-7.421
		c0.205-0.28,1.061-1.775,2.22-2.977c11.558-11.961,23.192-23.847,34.751-35.808c17.794-18.411,35.571-36.838,53.304-55.309
		c13.926-14.506,27.772-29.088,41.654-43.637s27.751-29.11,41.648-43.644c15.163-15.857,30.398-31.646,45.486-47.576
		c2.601-2.746,5.297-3.866,9.139-3.861c78.453,0.109,156.906,0.095,235.359,0.036c4.122-0.003,8.253-0.536,12.363-0.972
		c3.467-0.367,4.612,0.954,4.571,4.48c-0.169,14.322-0.067,28.648-0.066,42.974c0.002,27.982-0.018,55.966,0.053,83.949
		c0.004,1.874,0.688,3.746,1.057,5.619c1.526,11.589-1.278,22.505-5.708,32.991c-9.706,22.977-26.82,39.448-47.528,52.467
		c-29.919,18.809-63.163,28.655-97.478,35.432c-29.426,5.811-59.157,9.32-89.121,10.113c-27.785,0.735-55.614,1.341-83.386,0.593
		c-30.092-0.811-60.072-3.979-89.652-9.883c-11.862-2.367-23.555-5.589-35.323-8.423c-1.06-0.396-2.118-0.79-3.177-1.185
		c-0.001,0-0.4,0.016-0.4,0.016l-0.353-0.188c-1.005-0.304-2.009-0.607-3.014-0.91c-0.341-0.087-0.682-0.174-1.022-0.261
		c-0.664-0.229-1.328-0.46-1.993-0.69l-0.008-0.002c-0.789-0.304-1.578-0.607-2.366-0.911l-0.297,0.091c0,0-0.27-0.153-0.271-0.154
		c-0.719-0.314-1.438-0.629-2.157-0.942c0,0-0.021,0.073-0.02,0.071c-2.788-4.082-7.177-5.623-11.298-3.971l-0.287,0.059
		L418.01,1170.15z M820.014,1053.648c0.088-29.051-23.186-52.574-52.128-52.687c-29.127-0.114-52.679,23.064-52.818,51.981
		c-0.142,29.305,23.216,52.932,52.362,52.966C796.431,1105.943,819.926,1082.592,820.014,1053.648z"/>
	<path fill-rule="evenodd" clip-rule="evenodd" fill="#376E9C" d="M423,578c1.099-1.932,1.837-4.224,3.35-5.743
		c29.261-29.404,58.579-58.75,87.949-88.045C634.708,364.109,755.141,244.03,875.55,123.928c3.201-3.192,6.116-6.783,11.389-5.926
		c0.255,0.149,0.319,0.358,0.193,0.626c0.272,0.787,0.544,1.573,0.816,2.358c0.373,1.279,0.747,2.56,1.12,3.839
		c-1.781,4.311,0.562,7.665,2.573,11.096c0.175,1.338,0.351,2.676,0.525,4.014c0.164,1.022,0.328,2.044,0.492,3.066
		c0.054,1.016,0.106,2.031,0.16,3.048c-0.007,3.969-0.015,7.937-0.021,11.905c-0.051,36.683-0.102,73.365-0.152,110.047
		c-4.136,3.42-8.58,6.529-12.36,10.305c-98.25,98.136-196.448,196.324-294.56,294.601c-3.606,3.613-7.522,5.121-12.363,5.099
		c-5.161-0.023-10.329-0.137-15.481,0.087c-1.317,0.057-2.587,1.236-3.879,1.9C510.342,578.911,466.612,582.321,423,578z"/>
	<path fill-rule="evenodd" clip-rule="evenodd" fill="#366C9A" d="M554.002,579.992c1.292-0.664,2.562-1.844,3.879-1.9
		c5.152-0.224,10.32-0.11,15.481-0.087c4.841,0.022,8.757-1.485,12.363-5.099c98.111-98.276,196.31-196.465,294.56-294.601
		c3.78-3.775,8.225-6.885,12.36-10.305c0.072,2.653,0.208,5.308,0.209,7.961c0.015,48.035,0.015,96.07,0.007,144.104
		c0,1.991-0.11,3.982-0.17,5.973c-0.094,0.096-0.283,0.218-0.265,0.28c0.065,0.225,0.201,0.429,0.311,0.64
		c-0.31,63.03-28.325,118.071-98.848,142.834c-15.724,5.521-31.875,9.426-48.624,10.313c-1.398,0.202-2.797,0.403-4.194,0.604
		c-1.372,0.043-2.744,0.085-4.116,0.128c-1.919-0.28-3.837-0.802-5.756-0.804C672.134,579.989,613.068,579.995,554.002,579.992z"/>
	<path fill-rule="evenodd" clip-rule="evenodd" fill="#3772A4" d="M554.002,579.992c59.066,0.003,118.132-0.003,177.197,0.043
		c1.919,0.002,3.837,0.523,5.756,0.804c-3.322,0.142-6.646,0.408-9.968,0.409c-93.332,0.019-186.663-0.006-279.995,0.03
		c-8.656,0.004-17.312,0.361-25.967,0.554c0.658-1.277,1.316-2.555,1.975-3.832C466.612,582.321,510.342,578.911,554.002,579.992z"
		/>
	<path fill-rule="evenodd" clip-rule="evenodd" fill="#3878AD" d="M8.419,704.07c1.552,1.421,3.346,2.664,4.561,4.331
		c0.684,0.938,0.82,2.692,0.475,3.865c-0.497,1.688-1.655,3.182-2.531,4.759C10.089,712.707,9.254,708.389,8.419,704.07z"/>
	<path fill-rule="evenodd" clip-rule="evenodd" fill="#FED647" d="M418.538,1170.26c4.121-1.652,8.51-0.111,11.298,3.971
		C426.069,1172.908,422.304,1171.584,418.538,1170.26z"/>
	<path fill-rule="evenodd" clip-rule="evenodd" fill="#3878AD" d="M724.063,10.813c-4.809,1.817-8.921-0.104-12.964-2.408
		C715.421,9.208,719.742,10.011,724.063,10.813z"/>
	<path fill-rule="evenodd" clip-rule="evenodd" fill="#376E9C" d="M423,578c-0.658,1.277-1.316,2.555-1.975,3.832
		c-0.68,0.039-1.358,0.077-2.038,0.116c-0.873-0.605-1.745-1.21-3.892-2.697C418.546,578.705,420.773,578.353,423,578z"/>
	<path fill-rule="evenodd" clip-rule="evenodd" fill="#3772A4" d="M891.642,135.921c-2.012-3.431-4.354-6.785-2.573-11.096
		C889.927,128.523,890.784,132.223,891.642,135.921z"/>
	<path fill-rule="evenodd" clip-rule="evenodd" fill="#3772A4" d="M892.798,157.954c0.007-3.969,0.015-7.937,0.021-11.905
		C892.813,150.018,892.805,153.985,892.798,157.954z"/>
	<path fill-rule="evenodd" clip-rule="evenodd" fill="#3772A4" d="M892.659,143.001c-0.164-1.022-0.328-2.044-0.492-3.066
		C892.331,140.957,892.495,141.979,892.659,143.001z"/>
	<path fill-rule="evenodd" clip-rule="evenodd" fill="#3878AD" d="M731.951,12.271c-0.984-0.197-1.968-0.394-2.95-0.59
		C729.984,11.878,730.968,12.074,731.951,12.271z"/>
	<path fill-rule="evenodd" clip-rule="evenodd" fill="#3772A4" d="M741.071,580.711c1.397-0.201,2.796-0.402,4.194-0.604
		C743.868,580.309,742.47,580.51,741.071,580.711z"/>
	<path fill-rule="evenodd" clip-rule="evenodd" fill="#3878AD" d="M739.121,13.948c-1.024-0.252-2.05-0.504-3.074-0.755
		C737.071,13.445,738.097,13.696,739.121,13.948z"/>
	<path fill-rule="evenodd" clip-rule="evenodd" fill="#FED647" d="M1172.077,411.009c-0.36-0.993-0.722-1.986-1.082-2.979
		C1171.355,409.022,1171.717,410.016,1172.077,411.009z"/>
	<path fill-rule="evenodd" clip-rule="evenodd" fill="#FED647" d="M437.97,1177.029c1.005,0.303,2.009,0.606,3.014,0.91
		C439.979,1177.636,438.975,1177.332,437.97,1177.029z"/>
	<path fill-rule="evenodd" clip-rule="evenodd" fill="#FED647" d="M441.736,1178.111c1.059,0.395,2.117,0.789,3.177,1.185
		C443.854,1178.901,442.795,1178.506,441.736,1178.111z"/>
	<path fill-rule="evenodd" clip-rule="evenodd" fill="#3772A4" d="M887.948,120.986c-0.272-0.785-0.544-1.571-0.816-2.358
		C887.404,119.414,887.676,120.2,887.948,120.986z"/>
	<path fill-rule="evenodd" clip-rule="evenodd" fill="#FED647" d="M1170.979,407.994c-0.32-0.676-0.64-1.351-0.96-2.026
		C1170.339,406.644,1170.658,407.318,1170.979,407.994z"/>
	<path fill-rule="evenodd" clip-rule="evenodd" fill="#3878AD" d="M12.105,723.019c0.245,0.844,0.491,1.688,0.736,2.533
		C12.596,724.709,12.351,723.864,12.105,723.019z"/>
	<path fill-rule="evenodd" clip-rule="evenodd" fill="#FED647" d="M429.855,1174.159c0.719,0.313,1.438,0.628,2.157,0.942
		C431.294,1174.788,430.574,1174.474,429.855,1174.159z"/>
	<path fill-rule="evenodd" clip-rule="evenodd" fill="#FED647" d="M432.58,1175.165c0.788,0.304,1.577,0.607,2.366,0.911
		C434.157,1175.772,433.368,1175.469,432.58,1175.165z"/>
	<path fill-rule="evenodd" clip-rule="evenodd" fill="#FED647" d="M434.954,1176.078c0.665,0.23,1.329,0.461,1.993,0.69
		C436.283,1176.538,435.618,1176.309,434.954,1176.078z"/>
	<path fill-rule="evenodd" clip-rule="evenodd" fill="#3878AD" d="M735.028,12.979c-0.255,0.004-0.501-0.044-0.735-0.142
		c0.001,0.001,0.396-0.178,0.396-0.178L735.028,12.979z"/>
	<path fill-rule="evenodd" clip-rule="evenodd" fill="#3878AD" d="M743.277,14.896c-0.391-0.128-0.781-0.257-1.171-0.385
		C742.497,14.639,742.888,14.768,743.277,14.896z"/>
	<path fill-rule="evenodd" clip-rule="evenodd" fill="#3772A4" d="M892.737,426.959c-0.109-0.211-0.245-0.415-0.311-0.64
		c-0.019-0.063,0.171-0.185,0.265-0.28C892.889,426.337,892.904,426.644,892.737,426.959z"/>
	<path fill-rule="evenodd" clip-rule="evenodd" fill="#3878AD" d="M11.605,721.15c0.11,0.337,0.22,0.674,0.329,1.011
		c-0.167-0.21-0.36-0.405-0.486-0.638C11.408,721.448,11.547,721.277,11.605,721.15z"/>
	<path fill-rule="evenodd" clip-rule="evenodd" fill="none" d="M436.611,197.255c-28.151-0.15-51.104-23.325-52.064-50.319
		c-0.945-26.541,19.949-54.956,53.909-54.528c27.942,0.352,51.54,24.639,51.152,52.874
		C489.208,174.393,465.738,197.411,436.611,197.255z"/>
	<path fill-rule="evenodd" clip-rule="evenodd" fill="none" d="M820.014,1053.648c-0.088,28.943-23.583,52.295-52.584,52.261
		c-29.146-0.034-52.504-23.661-52.362-52.966c0.14-28.917,23.691-52.096,52.818-51.981
		C796.828,1001.074,820.102,1024.598,820.014,1053.648z"/>
</g>
</svg>
