<?xml version="1.0" encoding="utf-8"?>
<!-- Generator: Adobe Illustrator 16.0.0, SVG Export Plug-In . SVG Version: 6.00 Build 0)  -->
<!DOCTYPE svg PUBLIC "-//W3C//DTD SVG 1.1//EN" "http://www.w3.org/Graphics/SVG/1.1/DTD/svg11.dtd">
<svg version="1.1" id="Layer_1" xmlns="http://www.w3.org/2000/svg" xmlns:xlink="http://www.w3.org/1999/xlink" x="0px" y="0px"
	 width="511.824px" height="511.912px" viewBox="0 0 511.824 511.912" enable-background="new 0 0 511.824 511.912"
	 xml:space="preserve">
<g>
	<g>
		<path fill-rule="evenodd" clip-rule="evenodd" fill="none" d="M511.824,511.912c-170.549,0-341.174,0-511.824,0
			C0,341.304,0,170.695,0,0c170.541,0,341.107,0,511.824,0C511.824,170.579,511.824,341.245,511.824,511.912z M255.248,95.136
			c-1.965-1.798-4.131-3.83-6.351-5.801c-18.409-16.339-37.959-31.059-61.278-39.643c-8.496-3.127-17.571-5.401-26.561-6.32
			c-22.456-2.296-39.676,10.519-47.083,34.078c-7.596,24.159-6.075,48.678-2.344,73.205c1.266,8.321,3.112,16.555,4.665,24.678
			c-11.572,4.263-22.941,8.017-33.963,12.604c-19.826,8.251-38.365,18.686-52.746,35.126c-11.651,13.32-17.463,28.342-11.429,46.052
			c3.629,10.651,10.492,19.225,18.636,26.806c15.212,14.161,33.114,23.971,52.199,31.722c8.891,3.61,18.031,6.605,27.174,9.922
			c-1.571,8.094-3.338,16.044-4.632,24.071c-3.573,22.172-4.843,44.37,0.533,66.47c7.951,32.685,29.81,46.31,62.631,38.83
			c22.222-5.063,41.207-16.688,59.005-30.385c7.858-6.047,15.27-12.674,22.835-18.995c6.431,5.573,12.559,11.22,19.035,16.434
			c18.406,14.82,37.947,27.662,61.327,33.344c28.907,7.023,49.925-4.291,59.863-32.168c0.892-2.502,1.616-5.072,2.269-7.649
			c5.577-22.041,4.735-44.241,1.388-66.458c-1.253-8.317-2.976-16.565-4.447-24.646c9.58-3.561,18.88-6.694,27.927-10.443
			c21.237-8.799,41.175-19.757,56.729-37.195c11.04-12.378,17.596-26.416,13.084-43.447c-3.132-11.818-10.563-21.033-19.474-29.071
			c-17.101-15.426-37.395-25.288-58.733-33.235c-6.792-2.529-13.713-4.712-20.719-7.102c0.298-1.538,0.484-2.666,0.736-3.778
			c4.753-21.038,7.537-42.28,6.444-63.9c-0.694-13.73-2.979-27.141-9.041-39.638c-9.786-20.176-27.167-28.937-49.31-25.126
			c-21.033,3.62-39.261,13.469-56.168,25.847C276.474,77.358,266.176,86.324,255.248,95.136z"/>
		<path fill-rule="evenodd" clip-rule="evenodd" fill="#03D8FE" d="M255.248,95.136c10.928-8.812,21.226-17.777,32.203-25.814
			c16.907-12.378,35.135-22.227,56.168-25.847c22.143-3.811,39.523,4.95,49.31,25.126c6.062,12.497,8.347,25.907,9.041,39.638
			c1.093,21.62-1.691,42.862-6.444,63.9c-0.252,1.112-0.438,2.24-0.736,3.778c7.006,2.39,13.927,4.572,20.719,7.102
			c21.339,7.947,41.633,17.81,58.733,33.235c8.91,8.038,16.342,17.253,19.474,29.071c4.512,17.031-2.044,31.069-13.084,43.447
			c-15.554,17.438-35.491,28.396-56.729,37.195c-9.047,3.749-18.347,6.883-27.927,10.443c1.472,8.08,3.194,16.328,4.447,24.646
			c3.348,22.217,4.189,44.417-1.388,66.458c-0.652,2.577-1.377,5.147-2.269,7.649c-9.938,27.877-30.956,39.191-59.863,32.168
			c-23.38-5.682-42.921-18.523-61.327-33.344c-6.477-5.214-12.604-10.86-19.035-16.434c-7.565,6.321-14.977,12.948-22.835,18.995
			c-17.798,13.696-36.783,25.321-59.005,30.385c-32.821,7.479-54.681-6.146-62.631-38.83c-5.376-22.1-4.105-44.298-0.533-66.47
			c1.293-8.027,3.061-15.978,4.632-24.071c-9.143-3.316-18.284-6.312-27.174-9.922c-19.085-7.751-36.986-17.561-52.199-31.722
			c-8.145-7.581-15.007-16.154-18.636-26.806c-6.034-17.71-0.223-32.731,11.429-46.052c14.381-16.44,32.919-26.875,52.746-35.126
			c11.022-4.587,22.391-8.341,33.963-12.604c-1.552-8.123-3.399-16.356-4.665-24.678c-3.731-24.527-5.252-49.046,2.344-73.205
			c7.407-23.56,24.626-36.374,47.083-34.078c8.989,0.919,18.064,3.193,26.561,6.32c23.319,8.584,42.869,23.304,61.278,39.643
			C251.117,91.306,253.283,93.338,255.248,95.136z M254.054,332.037c0.004,0.475,0.008,0.95,0.013,1.426
			c13.979-0.516,27.964-0.913,41.929-1.687c1.906-0.105,4.487-1.633,5.443-3.27c13.505-23.121,26.829-46.349,40.006-69.658
			c0.859-1.52,0.927-4.354,0.076-5.841c-13.289-23.247-26.727-46.411-40.374-69.449c-1.025-1.731-3.889-3.35-5.912-3.366
			c-26.301-0.225-52.604-0.248-78.903,0.021c-2.282,0.023-5.493,1.909-6.661,3.884c-13.294,22.469-26.243,45.141-39.371,67.708
			c-1.805,3.103-1.651,5.768,0.132,8.819c13.176,22.54,26.288,45.118,39.315,67.745c1.629,2.831,3.684,3.761,6.854,3.725
			C229.083,331.953,241.568,332.037,254.054,332.037z M121.776,317.436c0.662-1.803,1.097-3.022,1.557-4.232
			c6.136-16.142,11.815-32.481,18.639-48.327c2.775-6.445,2.513-11.436-0.149-17.687c-7.144-16.773-13.495-33.884-20.278-51.161
			c-0.145,0.009-0.851-0.114-1.419,0.11c-15.121,5.969-30.566,11.255-45.235,18.185c-13.27,6.269-25.163,14.968-33.692,27.438
			c-6.244,9.129-6.485,18.43-0.126,27.403c3.528,4.979,7.536,9.816,12.109,13.824C72.867,300.242,96.57,309.67,121.776,317.436z
			 M241.419,403.236c-12.818-16.222-25.302-31.784-37.453-47.602c-2.411-3.138-5.003-4.298-8.698-4.678
			c-10.742-1.105-21.478-2.343-32.17-3.856c-8.839-1.251-17.612-2.97-26.795-4.546c-5.256,21.705-9.152,43.309-6.61,65.354
			c1.085,9.412,3.87,18.838,7.292,27.713c3.688,9.563,12.117,13.253,22.138,12.979c3.304-0.091,6.661-0.516,9.874-1.289
			C198.026,440.313,220.355,422.376,241.419,403.236z M271.038,403.646c10.206,8.095,20.489,16.805,31.353,24.719
			c12.017,8.754,25.114,15.65,39.76,19.083c18.465,4.327,28.864-1.332,35.321-19.133c0.566-1.56,1.078-3.144,1.515-4.744
			c4.54-16.651,4.552-33.575,2.479-50.511c-1.283-10.488-3.387-20.877-5.135-31.387c-1.783,0.135-2.6,0.144-3.398,0.265
			c-19.871,3.011-39.745,6.004-59.601,9.118c-1.309,0.205-2.848,1.051-3.646,2.087C296.999,369.593,284.416,386.123,271.038,403.646
			z M136.495,170.328c1.249-0.066,1.734-0.05,2.206-0.123c19.887-3.075,39.779-6.111,59.642-9.334
			c1.532-0.249,3.205-1.541,4.21-2.821c6.17-7.858,12.003-15.984,18.264-23.767c6.543-8.132,13.442-15.977,20.553-24.381
			c-6.902-5.832-13.446-11.752-20.395-17.151c-15.059-11.703-30.962-22.013-49.691-26.942c-22.798-6.001-34.195,0.849-39.364,23.745
			C125.767,116.799,130.424,143.442,136.495,170.328z M374.982,169.995c5.171-22.702,9.059-46.029,5.53-69.744
			c-1.32-8.873-4.622-17.619-8.148-25.945c-2.896-6.841-9.123-11.144-16.733-10.589c-8.008,0.585-16.269,1.696-23.774,4.38
			c-20.041,7.166-36.723,19.948-52.556,33.857c-3.055,2.684-6.019,5.472-8.402,7.645c13.078,16.829,25.603,33.006,38.245,49.09
			c0.888,1.128,2.582,2.038,4.021,2.255C333.537,164.009,353.932,166.938,374.982,169.995z M389.496,195.867
			c-0.474,0.852-0.765,1.257-0.94,1.707c-7.244,18.564-14.544,37.107-21.602,55.743c-0.642,1.693-0.172,4.151,0.536,5.96
			c7.084,18.092,14.323,36.124,21.535,54.167c0.353,0.884,0.855,1.707,1.438,2.851c22.486-7.13,44.176-15.482,62.703-30.142
			c6.185-4.893,11.759-10.826,16.62-17.059c6.81-8.729,6.625-18.28-0.066-27.182c-3.274-4.356-6.936-8.582-11.072-12.102
			C438.579,212.738,414.576,203.544,389.496,195.867z M354.521,279.472c-9.932,17.282-19.084,33.208-28.791,50.1
			c15.313-2.626,29.758-5.102,45.021-7.719C365.195,307.348,360.061,293.939,354.521,279.472z M141.356,322.78
			c14.974,2.4,29.081,4.662,44.276,7.098c-9.904-17.121-19.056-32.941-28.666-49.557
			C151.712,294.615,146.695,308.261,141.356,322.78z M227.232,353.419c10.053,11.988,19.377,23.105,29.232,34.857
			c9.763-12.065,18.777-23.208,28.202-34.857C265.125,353.419,246.876,353.419,227.232,353.419z M227.332,158.435
			c19.394,0,37.479,0,56.66,0c-9.638-11.622-18.605-22.437-28.188-33.993C246.069,136.063,236.973,146.924,227.332,158.435z
			 M325.745,182.748c9.627,16.61,18.755,32.36,28.526,49.22c5.236-14.06,10.177-27.323,15.476-41.549
			C354.727,187.801,340.602,185.338,325.745,182.748z M141.724,190.262c5.254,14.361,10.171,27.799,15.245,41.665
			c9.566-16.595,18.701-32.441,28.343-49.168C170.532,185.303,156.697,187.685,141.724,190.262z"/>
		<path fill-rule="evenodd" clip-rule="evenodd" fill="none" d="M254.054,332.037c-12.485,0-24.971-0.084-37.454,0.058
			c-3.17,0.036-5.225-0.894-6.854-3.725c-13.027-22.627-26.14-45.205-39.315-67.745c-1.783-3.052-1.937-5.717-0.132-8.819
			c13.128-22.567,26.077-45.239,39.371-67.708c1.168-1.975,4.379-3.86,6.661-3.884c26.299-0.27,52.603-0.246,78.903-0.021
			c2.023,0.017,4.887,1.635,5.912,3.366c13.647,23.038,27.085,46.202,40.374,69.449c0.851,1.487,0.783,4.321-0.076,5.841
			c-13.177,23.31-26.501,46.537-40.006,69.658c-0.956,1.637-3.537,3.164-5.443,3.27c-13.965,0.773-27.95,1.171-41.929,1.687
			C254.062,332.987,254.058,332.512,254.054,332.037z M255.331,298.259c23.877,0.106,42.881-18.771,42.904-42.618
			c0.023-23.673-18.692-42.642-42.232-42.805c-23.915-0.166-43.019,18.596-43.162,42.389
			C212.696,279.132,231.478,298.153,255.331,298.259z"/>
		<path fill-rule="evenodd" clip-rule="evenodd" fill="none" d="M121.776,317.436c-25.206-7.766-48.909-17.193-68.596-34.446
			c-4.574-4.008-8.582-8.845-12.109-13.824c-6.358-8.974-6.118-18.274,0.126-27.403c8.529-12.471,20.422-21.17,33.692-27.438
			c14.669-6.93,30.115-12.216,45.235-18.185c0.569-0.225,1.275-0.102,1.419-0.11c6.784,17.277,13.135,34.388,20.278,51.161
			c2.663,6.251,2.925,11.241,0.149,17.687c-6.823,15.846-12.502,32.186-18.639,48.327
			C122.873,314.413,122.438,315.633,121.776,317.436z"/>
		<path fill-rule="evenodd" clip-rule="evenodd" fill="none" d="M241.419,403.236c-21.063,19.14-43.393,37.076-72.423,44.075
			c-3.213,0.773-6.57,1.198-9.874,1.289c-10.021,0.274-18.45-3.416-22.138-12.979c-3.422-8.875-6.207-18.301-7.292-27.713
			c-2.542-22.046,1.354-43.649,6.61-65.354c9.183,1.576,17.956,3.295,26.795,4.546c10.692,1.514,21.428,2.751,32.17,3.856
			c3.695,0.38,6.287,1.54,8.698,4.678C216.117,371.452,228.601,387.015,241.419,403.236z"/>
		<path fill-rule="evenodd" clip-rule="evenodd" fill="none" d="M271.038,403.646c13.378-17.522,25.961-34.053,38.647-50.503
			c0.799-1.036,2.338-1.882,3.646-2.087c19.855-3.114,39.729-6.107,59.601-9.118c0.799-0.121,1.615-0.13,3.398-0.265
			c1.748,10.51,3.852,20.898,5.135,31.387c2.072,16.936,2.061,33.859-2.479,50.511c-0.437,1.601-0.948,3.185-1.515,4.744
			c-6.457,17.801-16.856,23.46-35.321,19.133c-14.646-3.433-27.743-10.329-39.76-19.083
			C291.527,420.45,281.244,411.74,271.038,403.646z"/>
		<path fill-rule="evenodd" clip-rule="evenodd" fill="none" d="M136.495,170.328c-6.07-26.886-10.728-53.529-4.577-80.774
			c5.169-22.896,16.566-29.746,39.364-23.745c18.729,4.93,34.633,15.239,49.691,26.942c6.948,5.399,13.492,11.319,20.395,17.151
			c-7.11,8.404-14.01,16.249-20.553,24.381c-6.261,7.782-12.094,15.908-18.264,23.767c-1.005,1.28-2.678,2.572-4.21,2.821
			c-19.862,3.223-39.755,6.259-59.642,9.334C138.229,170.278,137.744,170.262,136.495,170.328z"/>
		<path fill-rule="evenodd" clip-rule="evenodd" fill="none" d="M374.982,169.995c-21.051-3.058-41.445-5.986-61.818-9.052
			c-1.438-0.217-3.133-1.127-4.021-2.255c-12.643-16.084-25.167-32.261-38.245-49.09c2.384-2.173,5.348-4.961,8.402-7.645
			c15.833-13.909,32.515-26.691,52.556-33.857c7.506-2.684,15.767-3.795,23.774-4.38c7.61-0.555,13.837,3.748,16.733,10.589
			c3.526,8.326,6.828,17.072,8.148,25.945C384.041,123.966,380.153,147.293,374.982,169.995z"/>
		<path fill-rule="evenodd" clip-rule="evenodd" fill="none" d="M389.496,195.867c25.08,7.677,49.083,16.871,69.151,33.944
			c4.137,3.52,7.798,7.745,11.072,12.102c6.691,8.901,6.876,18.453,0.066,27.182c-4.861,6.232-10.436,12.166-16.62,17.059
			c-18.527,14.659-40.217,23.012-62.703,30.142c-0.582-1.144-1.085-1.967-1.438-2.851c-7.212-18.043-14.451-36.075-21.535-54.167
			c-0.708-1.809-1.178-4.267-0.536-5.96c7.058-18.636,14.357-37.179,21.602-55.743C388.731,197.124,389.022,196.719,389.496,195.867
			z"/>
		<path fill-rule="evenodd" clip-rule="evenodd" fill="none" d="M354.521,279.472c5.54,14.468,10.675,27.876,16.229,42.381
			c-15.263,2.617-29.707,5.093-45.021,7.719C335.437,312.68,344.589,296.754,354.521,279.472z"/>
		<path fill-rule="evenodd" clip-rule="evenodd" fill="none" d="M141.356,322.78c5.338-14.52,10.355-28.165,15.61-42.459
			c9.61,16.615,18.762,32.436,28.666,49.557C170.438,327.442,156.33,325.181,141.356,322.78z"/>
		<path fill-rule="evenodd" clip-rule="evenodd" fill="none" d="M227.232,353.419c19.644,0,37.893,0,57.435,0
			c-9.425,11.649-18.439,22.792-28.202,34.857C246.609,376.524,237.285,365.407,227.232,353.419z"/>
		<path fill-rule="evenodd" clip-rule="evenodd" fill="none" d="M227.332,158.435c9.641-11.511,18.737-22.371,28.472-33.993
			c9.583,11.557,18.551,22.371,28.188,33.993C264.811,158.435,246.726,158.435,227.332,158.435z"/>
		<path fill-rule="evenodd" clip-rule="evenodd" fill="none" d="M325.745,182.748c14.856,2.59,28.981,5.053,44.002,7.671
			c-5.299,14.226-10.239,27.489-15.476,41.549C344.5,215.108,335.372,199.358,325.745,182.748z"/>
		<path fill-rule="evenodd" clip-rule="evenodd" fill="none" d="M141.724,190.262c14.973-2.577,28.808-4.959,43.587-7.503
			c-9.642,16.727-18.776,32.573-28.343,49.168C151.896,218.061,146.979,204.623,141.724,190.262z"/>
		<path fill-rule="evenodd" clip-rule="evenodd" fill="#01D7FE" d="M255.331,298.259c-23.854-0.105-42.635-19.127-42.49-43.034
			c0.144-23.793,19.247-42.555,43.162-42.389c23.54,0.163,42.256,19.132,42.232,42.805
			C298.212,279.487,279.208,298.365,255.331,298.259z"/>
	</g>
</g>
</svg>
