<svg width="82" height="40" viewBox="0 0 82 40" fill="none" xmlns="http://www.w3.org/2000/svg">
<rect x="6" y="22" width="66" height="10" fill="url(#paint0_linear_201_7)"/>
<path d="M16.4148 26L15.4868 23.328H10.9268L9.98276 26H8.33476L12.3988 14.8H14.0628L18.1268 26H16.4148ZM15.0388 21.968L13.1988 16.736L11.3428 21.968H15.0388ZM21.205 23.808C21.205 24.512 21.413 24.72 22.053 24.72H22.293V26.08H21.989C20.309 26.08 19.621 25.616 19.621 23.856V14.32H21.205V23.808ZM24.86 16.688C24.252 16.688 23.82 16.288 23.82 15.744C23.82 15.184 24.252 14.8 24.86 14.8C25.484 14.8 25.9 15.184 25.9 15.744C25.9 16.288 25.484 16.688 24.86 16.688ZM24.076 26V18.128H25.644V26H24.076ZM32.5534 26V24.96C32.1534 25.76 31.4494 26.16 30.2334 26.16C28.6174 26.16 27.6894 25.344 27.6894 24.016V23.568C27.6894 22.384 28.4734 21.536 30.5534 21.536H32.5534V20.992C32.5534 19.808 32.1374 19.328 31.0174 19.328C30.0094 19.328 29.5774 19.792 29.4814 20.496H27.9454C28.1374 18.976 29.0814 17.968 31.1454 17.968C33.0974 17.968 34.1214 18.864 34.1214 20.832V26H32.5534ZM30.7294 25.024C31.8974 25.024 32.5534 24.48 32.5534 23.12V22.496H30.7294C29.6414 22.496 29.2734 22.896 29.2734 23.568V23.872C29.2734 24.624 29.7214 25.024 30.7294 25.024ZM39.0914 19.168C38.0834 19.168 37.6994 19.52 37.6994 20.208C37.6994 20.88 38.0354 21.104 38.9154 21.312L39.9394 21.52C41.7954 21.92 42.4514 22.432 42.4514 23.792C42.4514 25.344 41.3954 26.16 39.2834 26.16C37.2354 26.16 36.1154 25.328 35.9074 23.488H37.3954C37.5234 24.512 38.0834 24.96 39.3154 24.96C40.4514 24.96 40.8834 24.576 40.8834 23.856C40.8834 23.152 40.5954 22.96 39.5234 22.736L38.3874 22.512C36.8834 22.208 36.1314 21.632 36.1314 20.272C36.1314 18.88 37.0754 17.968 39.0754 17.968C41.2354 17.968 42.1954 18.864 42.2754 20.512H40.7554C40.6594 19.6 40.1794 19.168 39.0914 19.168ZM47.5881 29.36C45.5401 29.36 44.3561 28.432 44.1641 26.896H45.7001C45.8441 27.616 46.4041 28 47.5241 28C48.8361 28 49.4281 27.376 49.4281 25.808V24.624C48.9961 25.536 48.1641 26 47.0761 26C45.3161 26 44.0361 24.8 44.0361 22.48V21.488C44.0361 19.168 45.3161 17.968 47.0761 17.968C48.2121 17.968 49.0121 18.464 49.4281 19.328V18.128H50.9961V25.792C50.9961 28.192 49.7801 29.36 47.5881 29.36ZM47.4921 19.328C46.2281 19.328 45.6361 20.192 45.6361 21.52V22.416C45.6361 23.776 46.2281 24.64 47.5241 24.64C48.7081 24.64 49.4281 23.888 49.4281 22.384V21.488C49.4281 20.16 48.6761 19.328 47.4921 19.328ZM59.8811 23.632C59.6731 25.248 58.4411 26.16 56.6011 26.16C54.5371 26.16 53.1611 24.96 53.1611 22.64V21.472C53.1611 19.168 54.5211 17.968 56.6171 17.968C58.6331 17.968 59.9291 19.2 59.9291 21.536V22.352H54.7771C54.7931 22.592 54.8091 22.816 54.8251 23.024C54.9211 24.16 55.5131 24.848 56.6811 24.848C56.7771 24.848 56.8571 24.832 56.9531 24.816C57.7851 24.752 58.2331 24.304 58.3451 23.632H59.8811ZM54.7771 21.28L54.9211 21.36H58.4251C58.3611 19.92 57.8331 19.264 56.6331 19.264C55.4011 19.264 54.8251 20.048 54.7771 21.28ZM63.6284 21.76V26H62.0604V18.128H63.6284V19.488C64.1404 18.464 64.9564 17.968 65.9804 17.968H66.3644V19.504H65.9164C64.5724 19.504 63.6284 20.24 63.6284 21.76Z" fill="white"/>
<defs>
<linearGradient id="paint0_linear_201_7" x1="6" y1="27" x2="72" y2="27" gradientUnits="userSpaceOnUse">
<stop stop-color="#AE52B7"/>
<stop offset="1" stop-color="#6746C3"/>
</linearGradient>
</defs>
</svg>
